<!--
Hope you enjoy your new logo, here are the people that
made your beautiful logo happen :)
font name: Coda-Regular
font link: https://fonts.google.com/specimen/Coda
font author: Vernon Adams
font author site: http://sansoxygen.com/

icon designer: Rémy Médard
icon designer link: /catalarem

{"bg":"#EFEEEB","icon-gradient-0":"#0978A6","icon-gradient-1":"#FB9447","font":"#1F1E1A","slogan":"#33322e"}
-->
<svg data-v-423bf9ae=""
  xmlns="http://www.w3.org/2000/svg" viewBox="0 0 631.6714101231761 163" class="iconAbove">  <!---->  <!---->  <!---->
  <g data-v-423bf9ae="" id="328dc37f-506d-403b-b9fa-d1faf7260b00" fill="#1F1E1A" transform="matrix(5.665722297967836,0,0,5.665722297967836,-0.11330753905463098,80.16714128833388)">
    <path d="M6.67 4.33L6.67 5.39L4.01 5.39L4.01 14.52L2.63 14.52L2.63 5.39L0.02 5.39L0.02 4.33L6.67 4.33ZM11.09 6.85L11.09 6.85L11.03 7.99L11.03 7.99Q10.77 7.96 10.54 7.96L10.54 7.96L10.54 7.96Q10.06 7.96 9.75 8.05L9.75 8.05L9.75 8.05Q9.45 8.15 9.30 8.38L9.30 8.38L9.30 8.38Q9.15 8.61 9.10 8.91L9.10 8.91L9.10 8.91Q9.04 9.21 9.04 9.71L9.04 9.71L9.04 9.71Q9.04 9.99 9.07 10.53L9.07 10.53L9.07 10.53Q9.09 11.07 9.09 11.30L9.09 11.30L9.09 14.52L7.75 14.52L7.75 7.02L8.97 7.02L9.11 7.86L9.11 7.86Q9.32 7.37 9.75 7.10L9.75 7.10L9.75 7.10Q10.18 6.83 10.78 6.83L10.78 6.83L10.78 6.83Q10.93 6.83 11.09 6.85ZM14.06 7.02L14.06 14.52L12.71 14.52L12.71 7.02L14.06 7.02ZM12.71 4.12L14.06 4.12L14.06 5.30L12.71 5.30L12.71 4.12ZM20.38 7.02L21.77 7.02L19.29 14.52L17.83 14.52L15.47 7.02L16.73 7.02L18.57 13.35L20.38 7.02ZM24.53 7.02L24.53 14.52L23.18 14.52L23.18 7.02L24.53 7.02ZM23.18 4.12L24.53 4.12L24.53 5.30L23.18 5.30L23.18 4.12ZM32.20 9.56L32.20 14.52L31.14 14.52L30.92 13.45L30.92 13.45Q30.71 14.15 30.18 14.39L30.18 14.39L30.18 14.39Q29.64 14.62 28.61 14.62L28.61 14.62L28.61 14.62Q27.92 14.62 27.49 14.49L27.49 14.49L27.49 14.49Q27.05 14.36 26.79 14.04L26.79 14.04L26.79 14.04Q26.53 13.73 26.43 13.27L26.43 13.27L26.43 13.27Q26.33 12.82 26.33 12.10L26.33 12.10L26.33 12.10Q26.33 11.78 26.44 11.53L26.44 11.53L26.44 11.53Q26.56 11.27 26.75 11.09L26.75 11.09L26.75 11.09Q26.95 10.92 27.27 10.79L27.27 10.79L27.27 10.79Q27.60 10.66 27.95 10.58L27.95 10.58L27.95 10.58Q28.29 10.51 28.79 10.46L28.79 10.46L28.79 10.46Q29.29 10.42 29.76 10.40L29.76 10.40L29.76 10.40Q30.23 10.39 30.86 10.39L30.86 10.39L30.86 8.36L30.86 8.36Q30.86 8.01 30.53 7.88L30.53 7.88L30.53 7.88Q30.20 7.75 29.36 7.75L29.36 7.75L29.36 7.75Q28.77 7.75 28.48 7.77L28.48 7.77L28.48 7.77Q28.18 7.80 28.03 7.93L28.03 7.93L28.03 7.93Q27.88 8.07 27.85 8.20L27.85 8.20L27.85 8.20Q27.83 8.33 27.82 8.68L27.82 8.68L27.82 8.68Q27.82 8.81 27.82 8.89L27.82 8.89L26.77 8.85L26.77 8.85Q26.76 8.74 26.76 8.52L26.76 8.52L26.76 8.52Q26.76 8.07 26.89 7.75L26.89 7.75L26.89 7.75Q27.02 7.43 27.23 7.25L27.23 7.25L27.23 7.25Q27.45 7.07 27.82 6.97L27.82 6.97L27.82 6.97Q28.18 6.86 28.55 6.84L28.55 6.84L28.55 6.84Q28.91 6.81 29.45 6.81L29.45 6.81L29.45 6.81Q30.27 6.81 30.78 6.94L30.78 6.94L30.78 6.94Q31.29 7.06 31.62 7.39L31.62 7.39L31.62 7.39Q31.95 7.72 32.08 8.23L32.08 8.23L32.08 8.23Q32.20 8.74 32.20 9.56L32.20 9.56ZM30.86 12.37L30.86 12.37L30.86 11.20L30.86 11.20Q29.51 11.20 28.79 11.31L28.79 11.31L28.79 11.31Q28.06 11.41 27.82 11.59L27.82 11.59L27.82 11.59Q27.58 11.77 27.58 12.10L27.58 12.10L27.58 12.10Q27.58 12.11 27.58 12.14L27.58 12.14L27.58 12.14Q27.58 13.18 27.75 13.43L27.75 13.43L27.75 13.43Q27.92 13.69 28.79 13.69L28.79 13.69L28.79 13.69Q29.54 13.69 30.00 13.51L30.00 13.51L30.00 13.51Q30.47 13.33 30.65 13.05L30.65 13.05L30.65 13.05Q30.83 12.78 30.86 12.37ZM44.78 7.02L46.12 7.02L44.17 14.52L42.92 14.52L41.29 8.82L39.74 14.52L38.36 14.52L36.39 7.02L37.68 7.02L39.03 12.93L40.67 7.02L41.88 7.02L43.42 12.93L44.78 7.02ZM49.01 7.02L49.01 14.52L47.67 14.52L47.67 7.02L49.01 7.02ZM47.67 4.12L49.01 4.12L49.01 5.30L47.67 5.30L47.67 4.12ZM54.14 13.57L54.14 13.57L54.11 14.53L54.11 14.53Q53.54 14.62 53.07 14.62L53.07 14.62L53.07 14.62Q52.58 14.62 52.25 14.51L52.25 14.51L52.25 14.51Q51.93 14.40 51.76 14.16L51.76 14.16L51.76 14.16Q51.60 13.92 51.54 13.63L51.54 13.63L51.54 13.63Q51.47 13.34 51.47 12.89L51.47 12.89L51.47 7.79L50.46 7.79L50.46 7.02L51.47 7.02L51.47 4.89L52.81 4.78L52.81 7.02L54.20 7.02L54.20 7.79L52.81 7.79L52.81 12.43L52.81 12.43Q52.81 13.17 52.89 13.39L52.89 13.39L52.89 13.39Q52.96 13.61 53.28 13.61L53.28 13.61L53.28 13.61Q53.59 13.61 54.14 13.57ZM61.89 10.22L61.89 14.52L60.54 14.52L60.54 9.97L60.54 9.97Q60.54 9.72 60.55 9.34L60.55 9.34L60.55 9.34Q60.56 8.97 60.56 8.85L60.56 8.85L60.56 8.85Q60.56 8.50 60.51 8.32L60.51 8.32L60.51 8.32Q60.46 8.13 60.27 7.99L60.27 7.99L60.27 7.99Q60.09 7.85 59.75 7.80L59.75 7.80L59.75 7.80Q59.42 7.75 58.84 7.75L58.84 7.75L58.84 7.75Q58.56 7.75 58.32 7.78L58.32 7.78L58.32 7.78Q58.08 7.81 57.86 7.89L57.86 7.89L57.86 7.89Q57.64 7.96 57.50 8.09L57.50 8.09L57.50 8.09Q57.37 8.22 57.35 8.39L57.35 8.39L57.35 8.39Q57.26 9.63 57.26 10.61L57.26 10.61L57.26 14.52L55.90 14.52L55.90 4.36L57.26 4.25L57.26 7.59L57.26 7.59Q57.75 6.81 59.29 6.81L59.29 6.81L59.29 6.81Q59.70 6.82 60.02 6.86L60.02 6.86L60.02 6.86Q60.35 6.90 60.60 6.97L60.60 6.97L60.60 6.97Q60.85 7.03 61.04 7.14L61.04 7.14L61.04 7.14Q61.24 7.25 61.37 7.36L61.37 7.36L61.37 7.36Q61.51 7.48 61.61 7.65L61.61 7.65L61.61 7.65Q61.70 7.83 61.76 7.99L61.76 7.99L61.76 7.99Q61.81 8.16 61.84 8.39L61.84 8.39L61.84 8.39Q61.87 8.63 61.88 8.84L61.88 8.84L61.88 8.84Q61.89 9.05 61.89 9.35L61.89 9.35L61.89 9.35Q61.89 9.48 61.89 9.77L61.89 9.77L61.89 9.77Q61.89 10.06 61.89 10.22L61.89 10.22ZM72.27 4.33L72.41 5.39L68.20 5.39L68.20 8.71L71.78 8.71L71.78 9.82L68.20 9.82L68.20 14.52L66.81 14.52L66.81 4.33L72.27 4.33ZM77.18 6.85L77.18 6.85L77.12 7.99L77.12 7.99Q76.86 7.96 76.63 7.96L76.63 7.96L76.63 7.96Q76.15 7.96 75.84 8.05L75.84 8.05L75.84 8.05Q75.54 8.15 75.39 8.38L75.39 8.38L75.39 8.38Q75.24 8.61 75.19 8.91L75.19 8.91L75.19 8.91Q75.13 9.21 75.13 9.71L75.13 9.71L75.13 9.71Q75.13 9.99 75.16 10.53L75.16 10.53L75.16 10.53Q75.18 11.07 75.18 11.30L75.18 11.30L75.18 14.52L73.83 14.52L73.83 7.02L75.06 7.02L75.20 7.86L75.20 7.86Q75.41 7.37 75.84 7.10L75.84 7.10L75.84 7.10Q76.27 6.83 76.87 6.83L76.87 6.83L76.87 6.83Q77.02 6.83 77.18 6.85ZM80.15 7.02L80.15 14.52L78.80 14.52L78.80 7.02L80.15 7.02ZM78.80 4.12L80.15 4.12L80.15 5.30L78.80 5.30L78.80 4.12ZM88.20 10.66L88.20 10.66L88.20 10.66Q87.38 10.75 87.18 10.76L87.18 10.76L83.45 10.76L83.45 10.76Q83.46 11.75 83.51 12.93L83.51 12.93L83.51 12.93Q83.54 13.39 83.90 13.54L83.90 13.54L83.90 13.54Q84.26 13.69 85.30 13.69L85.30 13.69L85.30 13.69Q85.69 13.69 85.97 13.65L85.97 13.65L85.97 13.65Q86.25 13.62 86.42 13.55L86.42 13.55L86.42 13.55Q86.60 13.47 86.70 13.40L86.70 13.40L86.70 13.40Q86.80 13.32 86.84 13.17L86.84 13.17L86.84 13.17Q86.89 13.02 86.91 12.91L86.91 12.91L86.91 12.91Q86.92 12.80 86.93 12.59L86.93 12.59L86.93 12.59Q86.95 12.37 86.97 12.24L86.97 12.24L88.01 12.43L88.01 12.43Q88.00 12.91 87.94 13.24L87.94 13.24L87.94 13.24Q87.89 13.57 87.76 13.82L87.76 13.82L87.76 13.82Q87.63 14.08 87.45 14.22L87.45 14.22L87.45 14.22Q87.27 14.37 86.97 14.46L86.97 14.46L86.97 14.46Q86.67 14.56 86.31 14.59L86.31 14.59L86.31 14.59Q85.95 14.62 85.42 14.62L85.42 14.62L85.42 14.62Q84.73 14.62 84.23 14.54L84.23 14.54L84.23 14.54Q83.72 14.46 83.36 14.35L83.36 14.35L83.36 14.35Q83.00 14.23 82.77 13.97L82.77 13.97L82.77 13.97Q82.54 13.71 82.40 13.47L82.40 13.47L82.40 13.47Q82.27 13.23 82.21 12.76L82.21 12.76L82.21 12.76Q82.15 12.30 82.13 11.92L82.13 11.92L82.13 11.92Q82.11 11.54 82.11 10.87L82.11 10.87L82.11 10.87Q82.11 9.93 82.14 9.40L82.14 9.40L82.14 9.40Q82.16 8.87 82.27 8.34L82.27 8.34L82.27 8.34Q82.38 7.81 82.56 7.57L82.56 7.57L82.56 7.57Q82.75 7.33 83.11 7.13L83.11 7.13L83.11 7.13Q83.47 6.92 83.97 6.87L83.97 6.87L83.97 6.87Q84.46 6.81 85.22 6.81L85.22 6.81L85.22 6.81Q85.74 6.81 86.13 6.84L86.13 6.84L86.13 6.84Q86.51 6.87 86.83 6.97L86.83 6.97L86.83 6.97Q87.15 7.06 87.36 7.18L87.36 7.18L87.36 7.18Q87.57 7.31 87.73 7.55L87.73 7.55L87.73 7.55Q87.89 7.79 87.98 8.04L87.98 8.04L87.98 8.04Q88.06 8.30 88.12 8.72L88.12 8.72L88.12 8.72Q88.17 9.15 88.18 9.58L88.18 9.58L88.18 9.58Q88.20 10.01 88.20 10.66ZM83.46 10.04L83.46 10.04L86.85 10.04L86.85 10.04Q86.84 9.17 86.78 8.44L86.78 8.44L86.78 8.44Q86.75 8.03 86.42 7.89L86.42 7.89L86.42 7.89Q86.09 7.75 85.21 7.75L85.21 7.75L85.21 7.75Q84.23 7.75 83.97 7.85L83.97 7.85L83.97 7.85Q83.86 7.89 83.77 7.97L83.77 7.97L83.77 7.97Q83.69 8.06 83.63 8.22L83.63 8.22L83.63 8.22Q83.58 8.37 83.55 8.51L83.55 8.51L83.55 8.51Q83.51 8.65 83.50 8.89L83.50 8.89L83.50 8.89Q83.48 9.13 83.47 9.27L83.47 9.27L83.47 9.27Q83.47 9.40 83.46 9.67L83.46 9.67L83.46 9.67Q83.46 9.95 83.46 10.04ZM95.95 10.36L95.95 14.52L94.60 14.52L94.60 9.98L94.60 9.98Q94.60 9.54 94.60 9.28L94.60 9.28L94.60 9.28Q94.60 9.02 94.57 8.75L94.57 8.75L94.57 8.75Q94.55 8.48 94.52 8.35L94.52 8.35L94.52 8.35Q94.49 8.22 94.42 8.08L94.42 8.08L94.42 8.08Q94.35 7.95 94.27 7.90L94.27 7.90L94.27 7.90Q94.20 7.85 94.06 7.81L94.06 7.81L94.06 7.81Q93.91 7.77 93.77 7.76L93.77 7.76L93.77 7.76Q93.63 7.75 93.39 7.75L93.39 7.75L93.39 7.75Q92.87 7.75 92.50 7.81L92.50 7.81L92.50 7.81Q92.13 7.87 91.90 7.97L91.90 7.97L91.90 7.97Q91.67 8.07 91.54 8.26L91.54 8.26L91.54 8.26Q91.42 8.44 91.37 8.66L91.37 8.66L91.37 8.66Q91.32 8.87 91.32 9.19L91.32 9.19L91.32 9.19Q91.32 9.37 91.34 9.81L91.34 9.81L91.34 9.81Q91.36 10.25 91.36 10.52L91.36 10.52L91.36 14.52L90.02 14.52L90.02 7.02L91.25 7.02L91.38 7.86L91.38 7.86Q91.55 7.30 92.16 7.05L92.16 7.05L92.16 7.05Q92.77 6.81 93.61 6.81L93.61 6.81L93.61 6.81Q94.01 6.81 94.32 6.86L94.32 6.86L94.32 6.86Q94.62 6.90 94.86 7.02L94.86 7.02L94.86 7.02Q95.10 7.13 95.28 7.27L95.28 7.27L95.28 7.27Q95.45 7.42 95.57 7.65L95.57 7.65L95.57 7.65Q95.69 7.89 95.76 8.13L95.76 8.13L95.76 8.13Q95.84 8.38 95.88 8.75L95.88 8.75L95.88 8.75Q95.92 9.12 95.94 9.48L95.94 9.48L95.94 9.48Q95.95 9.85 95.95 10.36L95.95 10.36ZM103.98 4.03L103.98 14.52L102.75 14.52L102.62 13.58L102.62 13.58Q102.20 14.62 100.44 14.62L100.44 14.62L100.44 14.62Q99.97 14.62 99.60 14.56L99.60 14.56L99.60 14.56Q99.22 14.50 98.95 14.35L98.95 14.35L98.95 14.35Q98.68 14.20 98.49 14.04L98.49 14.04L98.49 14.04Q98.30 13.88 98.17 13.57L98.17 13.57L98.17 13.57Q98.05 13.27 97.98 13.02L97.98 13.02L97.98 13.02Q97.90 12.77 97.87 12.33L97.87 12.33L97.87 12.33Q97.84 11.88 97.83 11.55L97.83 11.55L97.83 11.55Q97.82 11.22 97.82 10.65L97.82 10.65L97.82 10.65Q97.82 10.10 97.84 9.69L97.84 9.69L97.84 9.69Q97.86 9.29 97.91 8.89L97.91 8.89L97.91 8.89Q97.96 8.50 98.04 8.23L98.04 8.23L98.04 8.23Q98.13 7.96 98.27 7.70L98.27 7.70L98.27 7.70Q98.42 7.45 98.62 7.30L98.62 7.30L98.62 7.30Q98.82 7.14 99.10 7.02L99.10 7.02L99.10 7.02Q99.38 6.90 99.74 6.86L99.74 6.86L99.74 6.86Q100.11 6.81 100.56 6.81L100.56 6.81L100.56 6.81Q101.45 6.81 101.93 7.04L101.93 7.04L101.93 7.04Q102.42 7.28 102.63 7.79L102.63 7.79L102.63 4.14L103.98 4.03ZM102.63 12.78L102.63 12.78L102.63 8.79L102.63 8.79Q102.63 8.20 102.27 7.97L102.27 7.97L102.27 7.97Q101.90 7.75 100.88 7.75L100.88 7.75L100.88 7.75Q100.08 7.75 99.70 7.87L99.70 7.87L99.70 7.87Q99.39 7.96 99.28 8.43L99.28 8.43L99.28 8.43Q99.17 8.90 99.17 9.69L99.17 9.69L99.17 9.69Q99.17 10.85 99.21 12.93L99.21 12.93L99.21 12.93Q99.24 13.38 99.58 13.53L99.58 13.53L99.58 13.53Q99.91 13.69 100.88 13.69L100.88 13.69L100.88 13.69Q101.83 13.69 102.21 13.49L102.21 13.49L102.21 13.49Q102.59 13.30 102.63 12.78ZM111.51 12.44L111.51 12.44L111.51 12.44Q111.51 13.10 111.37 13.52L111.37 13.52L111.37 13.52Q111.23 13.94 110.90 14.18L110.90 14.18L110.90 14.18Q110.56 14.43 110.09 14.53L110.09 14.53L110.09 14.53Q109.61 14.62 108.89 14.62L108.89 14.62L108.89 14.62Q108.47 14.62 108.21 14.62L108.21 14.62L108.21 14.62Q107.95 14.61 107.62 14.58L107.62 14.58L107.62 14.58Q107.28 14.55 107.08 14.50L107.08 14.50L107.08 14.50Q106.89 14.44 106.66 14.34L106.66 14.34L106.66 14.34Q106.43 14.24 106.30 14.09L106.30 14.09L106.30 14.09Q106.17 13.93 106.05 13.72L106.05 13.72L106.05 13.72Q105.94 13.51 105.89 13.22L105.89 13.22L105.89 13.22Q105.84 12.93 105.84 12.56L105.84 12.56L106.90 12.28L106.90 12.28Q106.96 13.06 107.04 13.27L107.04 13.27L107.04 13.27Q107.17 13.55 107.56 13.62L107.56 13.62L107.56 13.62Q107.85 13.69 108.79 13.69L108.79 13.69L108.79 13.69Q109.36 13.69 109.64 13.63L109.64 13.63L109.64 13.63Q109.92 13.58 110.01 13.44L110.01 13.44L110.01 13.44Q110.28 13.21 110.28 11.90L110.28 11.90L110.28 11.90Q110.28 11.70 110.20 11.56L110.20 11.56L110.20 11.56Q110.12 11.42 110.00 11.35L110.00 11.35L110.00 11.35Q109.89 11.28 109.68 11.23L109.68 11.23L109.68 11.23Q109.47 11.18 109.30 11.16L109.30 11.16L109.30 11.16Q109.14 11.14 108.86 11.12L108.86 11.12L108.86 11.12Q108.59 11.09 108.42 11.07L108.42 11.07L108.42 11.07Q107.93 11.01 107.61 10.96L107.61 10.96L107.61 10.96Q107.30 10.91 106.98 10.81L106.98 10.81L106.98 10.81Q106.65 10.71 106.47 10.55L106.47 10.55L106.47 10.55Q106.29 10.40 106.14 10.17L106.14 10.17L106.14 10.17Q105.99 9.93 105.93 9.59L105.93 9.59L105.93 9.59Q105.87 9.26 105.87 8.79L105.87 8.79L105.87 8.79Q105.87 8.30 105.97 7.96L105.97 7.96L105.97 7.96Q106.07 7.62 106.27 7.39L106.27 7.39L106.27 7.39Q106.47 7.16 106.81 7.04L106.81 7.04L106.81 7.04Q107.16 6.91 107.59 6.86L107.59 6.86L107.59 6.86Q108.02 6.81 108.64 6.81L108.64 6.81L108.64 6.81Q109.03 6.81 109.28 6.82L109.28 6.82L109.28 6.82Q109.53 6.83 109.83 6.87L109.83 6.87L109.83 6.87Q110.13 6.90 110.31 6.97L110.31 6.97L110.31 6.97Q110.50 7.04 110.68 7.16L110.68 7.16L110.68 7.16Q110.87 7.29 110.97 7.47L110.97 7.47L110.97 7.47Q111.08 7.65 111.14 7.91L111.14 7.91L111.14 7.91Q111.21 8.17 111.21 8.50L111.21 8.50L110.29 8.78L110.29 8.78Q110.26 8.52 110.24 8.36L110.24 8.36L110.24 8.36Q110.22 8.21 110.13 8.08L110.13 8.08L110.13 8.08Q110.05 7.95 109.96 7.90L109.96 7.90L109.96 7.90Q109.87 7.84 109.66 7.80L109.66 7.80L109.66 7.80Q109.44 7.76 109.22 7.75L109.22 7.75L109.22 7.75Q109.01 7.75 108.60 7.75L108.60 7.75L108.60 7.75Q107.72 7.75 107.41 7.92L107.41 7.92L107.41 7.92Q107.10 8.09 107.10 8.49L107.10 8.49L107.10 9.19L107.10 9.19Q107.10 9.64 107.37 9.76L107.37 9.76L107.37 9.76Q107.64 9.88 108.81 10.03L108.81 10.03L108.81 10.03Q108.94 10.05 109.00 10.06L109.00 10.06L109.00 10.06Q109.47 10.11 109.75 10.16L109.75 10.16L109.75 10.16Q110.02 10.21 110.33 10.28L110.33 10.28L110.33 10.28Q110.64 10.36 110.80 10.47L110.80 10.47L110.80 10.47Q110.96 10.58 111.12 10.74L111.12 10.74L111.12 10.74Q111.28 10.90 111.35 11.14L111.35 11.14L111.35 11.14Q111.43 11.38 111.47 11.70L111.47 11.70L111.47 11.70Q111.51 12.01 111.51 12.44Z"></path>
  </g>
  <defs data-v-423bf9ae="">
    <linearGradient data-v-423bf9ae="" gradientTransform="rotate(25)" id="76bbbe1a-ebe3-47ac-8e67-b6447aab61a1" x1="0%" y1="0%" x2="100%" y2="0%">
      <stop data-v-423bf9ae="" offset="0%" style="stop-color: rgb(9, 120, 166); stop-opacity: 1;"></stop>
      <stop data-v-423bf9ae="" offset="100%" style="stop-color: rgb(251, 148, 71); stop-opacity: 1;"></stop>
    </linearGradient>
  </defs>
  <g data-v-423bf9ae="" id="9461365d-babf-41d3-ac0e-a99186f9445c" transform="matrix(1.449298901312486,0,0,1.449298901312486,243.62133360045505,-23.49071253728532)" stroke="none" fill="url(#76bbbe1a-ebe3-47ac-8e67-b6447aab61a1)">
    <path d="M34.748 29.849c-6.062 0-11.379 4.274-11.379 9.146 0 2.06 1.513 3.498 3.68 3.498 2.515 0 3.284-1.652 3.963-3.111.725-1.556 1.35-2.902 4.008-2.902 2.357 0 3.654 1.137 3.654 3.198 0 1.771-1.583 2.992-3.416 4.405-2.136 1.646-4.556 3.514-4.556 6.708 0 1.83 1.274 3.772 3.635 3.772 2.64 0 3.234-1.567 3.713-2.827.18-.476.35-.925.616-1.313.367-.54 1.289-1.194 2.263-1.888 2.578-1.836 6.107-4.35 6.107-8.857 0-7.255-6.62-9.829-12.288-9.829zM34.519 56.086a4.459 4.459 0 0 0-4.454 4.453 4.46 4.46 0 0 0 4.454 4.455 4.46 4.46 0 0 0 4.455-4.455 4.459 4.459 0 0 0-4.455-4.453zM63.457 51.732c-1.512 0-2.741 1.229-2.741 2.741s1.229 2.742 2.741 2.742c1.511 0 2.74-1.23 2.74-2.742s-1.229-2.741-2.74-2.741z"></path>
    <circle cx="71.001" cy="54.474" r="2.742"></circle>
    <path d="M78.545 51.732c-1.511 0-2.742 1.229-2.742 2.741s1.231 2.742 2.742 2.742 2.741-1.23 2.741-2.742-1.23-2.741-2.741-2.741z"></path>
    <path d="M92.159 65.273c5.15-9.732 3.165-21.549-4.878-28.832-4.31-3.904-9.912-6.054-15.772-6.054-2.988 0-5.929.553-8.738 1.644l-.083.034a31.907 31.907 0 0 0-3.685-4.956c-6.005-6.633-14.528-10.437-23.384-10.437-7.582 0-14.828 2.781-20.403 7.83C4.851 33.89 2.3 49.681 9.095 62.161l-2.753 9.224a2.89 2.89 0 0 0 .625 2.754 2.904 2.904 0 0 0 2.679.894l9.41-1.821c5.217 3.586 11.534 5.559 17.82 5.559 6.512 0 12.713-2.017 17.937-5.831l.388-.284a23.432 23.432 0 0 0 15.368 5.706c4.748 0 9.533-1.461 13.511-4.121l6.756 1.309a2.878 2.878 0 0 0 3.305-3.648l-1.982-6.629zm-55.285 7.742c-5.51 0-10.986-1.834-15.421-5.164a2.929 2.929 0 0 0-2.274-.524l-5.965 1.154 1.747-5.853a2.882 2.882 0 0 0-.288-2.301c-6.202-10.359-4.349-23.631 4.405-31.559 4.515-4.089 10.389-6.341 16.541-6.341 7.233 0 14.202 3.115 19.118 8.545a26.16 26.16 0 0 1 2.873 3.827 24.46 24.46 0 0 0-4.161 3.645c-7.486 8.268-8.47 20.407-2.393 29.52.088.131.182.258.273.388l-.094.067c-4.193 3.008-9.16 4.596-14.361 4.596zm49.423-7.266l.969 3.247-3.3-.64a2.925 2.925 0 0 0-2.275.524 18.635 18.635 0 0 1-11.123 3.725c-4.428 0-8.656-1.62-11.905-4.562a16.6 16.6 0 0 1-.47-.446c-1-.976-1.881-2.067-2.619-3.245-4.29-6.849-3.408-15.915 2.142-22.045a18.888 18.888 0 0 1 7.296-4.971 18.354 18.354 0 0 1 6.498-1.193c4.43 0 8.659 1.621 11.91 4.565 6.306 5.709 7.638 15.273 3.166 22.74a2.877 2.877 0 0 0-.289 2.301z"></path>
  </g>  <!----></svg>
